<svg width="26" height="26" viewBox="0 0 26 26" fill="none" xmlns="http://www.w3.org/2000/svg">
<path fill-rule="evenodd" clip-rule="evenodd" d="M23.5395 10.8053C23.6802 10.3316 23.5395 10 22.883 10H20.6946C20.1318 10 19.8817 10.3 19.741 10.6316C19.741 10.6316 18.6312 13.3789 17.0524 15.1474C16.5366 15.6684 16.3177 15.8263 16.0363 15.8263C15.8957 15.8263 15.6924 15.6684 15.6924 15.1947V10.8053C15.6924 10.2368 15.5361 10 15.0672 10H11.6282C11.2843 10 11.0655 10.2684 11.0655 10.5053C11.0655 11.0421 11.8471 11.1684 11.9409 12.6526V15.9053C11.9409 16.6158 11.8158 16.7421 11.5344 16.7421C10.7998 16.7421 8.98648 13.9947 7.92353 10.8368C7.70469 10.2526 7.50148 10 6.93874 10H4.75032C4.12505 10 4 10.3 4 10.6316C4 11.2158 4.73469 14.1211 7.45459 17.9579C9.26785 20.5789 11.8158 22 14.1293 22C15.5205 22 15.6924 21.6842 15.6924 21.1474V19.1579C15.6924 18.5263 15.8175 18.4 16.2708 18.4C16.5991 18.4 17.1462 18.5579 18.4436 19.8211C19.9286 21.3211 20.1787 22 21.0072 22H23.1956C23.8209 22 24.1335 21.6842 23.9459 21.0684C23.7427 20.4526 23.0393 19.5526 22.1014 18.4789C21.5856 17.8632 20.8196 17.2158 20.6008 16.8842C20.2725 16.4579 20.3663 16.2684 20.6008 15.9053C20.6008 15.8895 23.2738 12.1 23.5395 10.8053Z" fill="#A6A6A6"/>
</svg>
